<svg xmlns="http://www.w3.org/2000/svg" viewBox="0.034 0 187.694 208.589"><path d="M98.33 0c30.27 1.31 57.45 16.51 76.24 46.47 3.21 5.11 4.3 8.07-3.37 10.34-16.2 4.79-15.78 5-26.85-7.23C126.61 30 104.42 22.16 78.5 27.94c-26.59 5.92-44 22.73-51.12 48.91-2.19 8.05-5.25 10.07-12.49 7.62a5.24 5.24 0 0 0-.88-.16C-2 81.84-2 81.84 2.91 66.11 15.33 26.65 51.91-.07 98.33 0zm41.75 81.59c13.62 0 27.25.16 40.88-.08 4.58-.09 5.95 1.52 6.39 6 4 41-24.17 83.57-63.79 96.38-5.2 1.68-7.3 1-8-4.81s-5.1-12.05-3.73-17c1.43-5.14 9.76-5 14.71-7.91 15.09-9 25.64-21.5 31.54-38.11 2.25-6.34 1.66-9-6-8.78-17.17.44-34.36 0-51.54.23-5.41.09-7.72-.86-7.66-7.16.16-18.84-.17-18.84 18.82-18.84z" fill="#0eda89"/><path d="M91.83 183.11c-2.32-10.13-5.27-19.92-11.15-28.62a62.62 62.62 0 0 0-21-24.88C44.58 116 26.42 109.75 6.57 107.25c-5.64-.71-6.92 1.09-5.73 6.14 4.73 20 13.61 37.55 29.75 50.87 7.69 8.74 17.56 14 28.36 17.8 9 4.12 18.45 5.88 28.25 6.49 4.4.27 5.69-.8 4.63-5.44z" fill="#00e07d"/></svg>